<svg xmlns="http://www.w3.org/2000/svg" viewBox="0 0 283.5 283.5">
    <path fill="#333" d="M250.8 225.3c-.8-.9-3.8-.1-5.5.7-5.5 2.6-10.6 6.2-16.3 8.2-13.4 4.8-24.2.9-32.7-11.2-2-2.8-3.7-5.9-5.7-8.8-4.6-6.6-10.6-11.1-18.2-13-11.7-3-21.6.3-30.8 8.4-9.2-8-19.1-11.3-30.8-8.4-7.6 1.9-13.6 6.4-18.2 13-2 2.8-3.7 5.9-5.7 8.8-8.5 12.1-19.2 16-32.7 11.2-5.6-2-10.8-5.6-16.3-8.2-1.7-.8-4.7-1.6-5.5-.7-1.2 1.3-1.7 4.3-1.1 6.1 2.4 7.5 4.7 15.1 8.1 22 10.1 19.9 27.1 28.2 47.3 29.8 21.8 1.7 40.2-6.1 54.7-23.9 14.5 17.8 32.9 25.6 54.7 23.9 20.2-1.6 37.3-9.9 47.3-29.8 3.5-6.9 5.7-14.6 8.1-22 1-1.8.5-4.8-.7-6.1zM83.5 131.1c-11.7 0-21.3 9.5-21.3 21.3 0 11.7 9.5 21.3 21.3 21.3s21.3-9.5 21.3-21.3-9.5-21.3-21.3-21.3zm0 32.1c-5.9 0-10.8-4.8-10.8-10.8 0-5.8 4.6-10.6 10.4-10.8-.5.9-.7 2-.7 3.1 0 3.9 3.2 7.1 7.1 7.1 1.7 0 3.3-.6 4.5-1.7.1.7.2 1.4.2 2.2.1 6-4.7 10.9-10.7 10.9zM141.4 71.1c79.5 0 100 6.7 101.2 15.1h.1C242.6 38.6 223.3 0 141.4 0S40.1 38.6 40.1 86.2h.1c1.1-8.4 21.7-15.1 101.2-15.1z"/>
    <path fill="#333" d="M141.7 81.2C63.5 81.2 0 100.8 0 124.8c0 5.1 2.8 9.9 7.9 14.4-.2-.7-.3-1.5-.3-2.2 0-17.3 60-31.4 134.1-31.4 11.5 0 22.6.3 33.2 1-19.3 6.3-33.2 24.4-33.2 45.8 0 26.6 21.6 48.2 48.2 48.2s48.2-21.6 48.2-48.2c0-17.9-9.8-33.6-24.3-41.9 37.3 5.6 62.1 15.3 62.1 26.5 0 .7-.1 1.5-.3 2.2 5.1-4.5 7.9-9.4 7.9-14.4 0-24-63.5-43.6-141.8-43.6zm85.9 71.3c0 20.8-16.9 37.7-37.7 37.7s-37.7-16.9-37.7-37.7 16.9-37.7 37.7-37.7 37.7 16.9 37.7 37.7z"/>
</svg>
